<svg width="16" height="16" viewBox="0 0 16 16" fill="none" xmlns="http://www.w3.org/2000/svg">
<circle cx="8" cy="8" r="7.5" fill="#031911" stroke="url(#paint0_linear_1_590)"/>
<path d="M8.1 6.49339C8.46694 6.4445 8.75 6.13031 8.75 5.75C8.75 5.33579 8.41421 5 8 5C7.58579 5 7.25 5.33579 7.25 5.75C7.25 6.13031 7.53306 6.4445 7.9 6.49339V7.75858L7.00538 6.86396C7.23027 6.56992 7.20826 6.1476 6.93934 5.87868C6.64645 5.58579 6.17157 5.58579 5.87868 5.87868C5.58579 6.17157 5.58579 6.64645 5.87868 6.93934C6.1476 7.20826 6.56992 7.23027 6.86395 7.00538L7.75858 7.9H6.49339C6.4445 7.53306 6.13031 7.25 5.75 7.25C5.33579 7.25 5 7.58579 5 8C5 8.41421 5.33579 8.75 5.75 8.75C6.13031 8.75 6.4445 8.46694 6.49339 8.1H7.75857L6.86396 8.99462C6.56992 8.76973 6.1476 8.79174 5.87868 9.06066C5.58579 9.35355 5.58579 9.82843 5.87868 10.1213C6.17158 10.4142 6.64645 10.4142 6.93934 10.1213C7.20826 9.8524 7.23027 9.43007 7.00538 9.13604L7.9 8.24142V9.50661C7.53306 9.5555 7.25 9.86969 7.25 10.25C7.25 10.6642 7.58579 11 8 11C8.41421 11 8.75 10.6642 8.75 10.25C8.75 9.86969 8.46694 9.5555 8.1 9.50661V8.24142L8.99462 9.13605C8.76973 9.43008 8.79174 9.8524 9.06066 10.1213C9.35356 10.4142 9.82843 10.4142 10.1213 10.1213C10.4142 9.82843 10.4142 9.35355 10.1213 9.06066C9.8524 8.79174 9.43008 8.76973 9.13604 8.99462L8.24142 8.1H9.50661C9.5555 8.46694 9.86969 8.75 10.25 8.75C10.6642 8.75 11 8.41421 11 8C11 7.58579 10.6642 7.25 10.25 7.25C9.86969 7.25 9.5555 7.53306 9.50661 7.9H8.24142L9.13604 7.00538C9.43007 7.23027 9.8524 7.20826 10.1213 6.93934C10.4142 6.64645 10.4142 6.17157 10.1213 5.87868C9.82842 5.58579 9.35355 5.58579 9.06066 5.87868C8.79174 6.1476 8.76973 6.56992 8.99462 6.86396L8.1 7.75857V6.49339Z" fill="#88FFD4"/>
<defs>
<linearGradient id="paint0_linear_1_590" x1="-6.25882" y1="-10.12" x2="24.2989" y2="2.00843" gradientUnits="userSpaceOnUse">
<stop stop-color="#D2EFF3"/>
<stop offset="1" stop-color="#105B40"/>
</linearGradient>
</defs>
</svg>
