   <svg
              width="26"
              height="26"
              viewBox="0 0 16 16"
              fill="none"
              xmlns="http://www.w3.org/2000/svg"
            >
              <circle cx="8" cy="8" r="7.5" fill="#0D0D0D" stroke="#251248" />
              <circle cx="8" cy="8" r="6" fill="url(#paint0_linear_1_496)" />
              <path
                d="M8.74924 7.00037V7.25037H8.99924H10.9992C11.1981 7.25037 11.3889 7.32938 11.5296 7.47004C11.6702 7.61069 11.7492 7.80145 11.7492 8.00037C11.7492 8.19928 11.6702 8.39004 11.5296 8.5307C11.3894 8.67087 11.1995 8.74982 11.0013 8.75036L9.00367 8.71491L8.74924 8.71039V8.96487V11.0004C8.74924 11.1993 8.67022 11.39 8.52957 11.5307C8.38891 11.6713 8.19815 11.7504 7.99924 11.7504C7.80032 11.7504 7.60956 11.6713 7.46891 11.5307C7.32873 11.3905 7.24977 11.2006 7.24924 11.0024L7.2847 8.96923L7.28921 8.71039L7.03038 8.7149L4.99722 8.75036C4.79904 8.74983 4.60908 8.67087 4.46891 8.5307C4.32825 8.39004 4.24924 8.19928 4.24924 8.00037C4.24924 7.80145 4.32825 7.61069 4.46891 7.47004C4.60956 7.32938 4.80032 7.25037 4.99924 7.25037H7.03474H7.28921L7.2847 6.99593L7.24924 4.99831C7.24978 4.80014 7.32874 4.6102 7.46891 4.47004C7.60956 4.32938 7.80032 4.25037 7.99924 4.25037C8.19815 4.25037 8.38891 4.32938 8.52957 4.47004C8.67022 4.61069 8.74924 4.80145 8.74924 5.00037V7.00037Z"
                fill="#0D0D0D"
                stroke="#251248"
                stroke-width="0.5"
              />
              <defs>
                <linearGradient
                  id="paint0_linear_1_496"
                  x1="8"
                  y1="2"
                  x2="8"
                  y2="26"
                  gradientUnits="userSpaceOnUse"
                >
                  <stop stop-color="#321344" />
                  <stop offset="1" stop-color="#D97FFF" />
                </linearGradient>
              </defs>
            </svg>